# xmcd CD database file
#
# Track frame offsets:
#	187
#	12800
#	23237
#	33482
#	46337
#	62270
#	77090
#	91270
#	106997
#	122070
#	135490
#	146542
#	159490
#	172592
#	188242
#	201877
#	215650
#	227722
#	243105
#	257682
#	274402
#	288092
#
# Disc length: 4035 seconds
#
# Revision: 2
# Processed by: cddbd v1.5.2PL0 Copyright (c) Steve Scherf et al.
# Submitted via: CDex 1.51
#
DISCID=240fc116
DTITLE=Various Artist - The History Of Motown Vol. 3_ 1968-1970
DYEAR=1990
DGENRE=Soul/R&B
TTITLE0=The Temptations - I Wish It World Rain
TTITLE1=Gladys Knight and The Pips - The End Of Our Road
TTITLE2=Marvin Gaye and Tammi Terrell - Ain't Nothing Like The Real Thing
TTITLE3=Stevie Wonder - For Once In My Life
TTITLE4=The Temptations - Cloud Nine
TTITLE5=Marvin Gaye - I Heard It Through The Gravevine
TTITLE6=Diana Ross and The Supremes with The Temptations - I'm Gonna Make You Love Me
TTITLE7=Dadid Ruffin - My World Ended (The Moment You Left Me)
TTITLE8=Edwin Starr - 25 Miles
TTITLE9=Marvin Gaye - Too Busy Think About My Baby
TTITLE10=Jr. Walker and The All Stars - What Does It Take (To Win Your Love)
TTITLE11=Stevie Wonder - My Cherie Amore
TTITLE12=The Temptations - I Can't Get Next To You
TTITLE13=Diana Ross and The Supremes - Someday We'll Be Together
TTITLE14=The Jackson 5 - I Want You Back
TTITLE15=The Originals - The Bells
TTITLE16=Stevie Wonder - Signed Sealed and Delivered (I'm Youres)
TTITLE17=Edwin Starr - War
TTITLE18=The Spinners - It's A Shame
TTITLE19=Diana Ross - Ain't No Mountain High Enough
TTITLE20=Smokey Robinson and The Miracles - The Tears Of Clown
TTITLE21=Gladys Knight and The Pips - If I Were Your Woman
EXTD=YEAR: 1990
EXTT0=
EXTT1=
EXTT2=
EXTT3=
EXTT4=
EXTT5=
EXTT6=
EXTT7=
EXTT8=
EXTT9=
EXTT10=
EXTT11=
EXTT12=
EXTT13=
EXTT14=
EXTT15=
EXTT16=
EXTT17=
EXTT18=
EXTT19=
EXTT20=
EXTT21=
PLAYORDER=
